# xmcd
#
# Track frame offsets:
#	150
#	11250
#	21077
#	32415
#	44010
#	54631
#	65562
#	78522
#	98339
#	108008
#	125646
#	142208
#	156880
#	168057
#	181454
#	191360
#	203831
#	217938
#	230589
#	243645
#
# Disc length: 3446 seconds
#
# Revision: 1
# Processed by: cddbd v1.5.2PL0 Copyright (c) Steve Scherf et al.
# Submitted via: audiograbber 1.83.01
#
DISCID=0a0d7414
DTITLE=Marty Robbins - The Ultimate Collection - Disc 1
DYEAR=2003
DGENRE=Country
TTITLE0=Singing the Blues
TTITLE1=Stairway of Love
TTITLE2=A White Sport Coat
TTITLE3=The Story of My Life
TTITLE4=Please Don't Blame Me
TTITLE5=She was Only Seventeen
TTITLE6=The Hanging Tree
TTITLE7=El Paso
TTITLE8=Cap and Gown
TTITLE9=Big Iron
TTITLE10=Ballad of the Alamo
TTITLE11=Don't Worry
TTITLE12=The Little Green Valley
TTITLE13=I Told the Brook
TTITLE14=Is There Any Chance
TTITLE15=It's Your World
TTITLE16=The Master's Call
TTITLE17=Love Can't Wait
TTITLE18=Devil Woman
TTITLE19=I Walk Alone
EXTD=
EXTT0=
EXTT1=
EXTT2=
EXTT3=
EXTT4=
EXTT5=
EXTT6=
EXTT7=
EXTT8=
EXTT9=
EXTT10=
EXTT11=
EXTT12=
EXTT13=
EXTT14=
EXTT15=
EXTT16=
EXTT17=
EXTT18=
EXTT19=
PLAYORDER=
